<mxfile host="app.diagrams.net" modified="2024-07-21T18:56:30.537Z" agent="Mozilla/5.0 (Windows NT 10.0; Win64; x64) AppleWebKit/537.36 (KHTML, like Gecko) Chrome/128.0.0.0 Safari/537.36 Edg/128.0.0.0" etag="w3bSB7s0CeCh4b-X6K5-" version="24.7.1" type="github">
  <diagram name="Page-1" id="XNl8anMvCdZQgOmeoOen">
    <mxGraphModel dx="1398" dy="1135" grid="1" gridSize="10" guides="1" tooltips="1" connect="1" arrows="1" fold="1" page="1" pageScale="1" pageWidth="850" pageHeight="1100" math="0" shadow="0">
      <root>
        <mxCell id="0" />
        <mxCell id="1" parent="0" />
        <mxCell id="Mk_iKz1ua9PjmVDizpKL-88" value="Single head of attention" style="group;fillColor=#dae8fc;strokeColor=#6c8ebf;gradientColor=none;rounded=0;perimeterSpacing=0;dashed=1;spacingTop=-25;spacing=0;spacingLeft=0;treeFolding=1;fontStyle=1;fontSize=13;noLabel=0;" vertex="1" connectable="0" parent="1">
          <mxGeometry x="270" y="320" width="450" height="490" as="geometry" />
        </mxCell>
        <mxCell id="Mk_iKz1ua9PjmVDizpKL-30" style="edgeStyle=orthogonalEdgeStyle;rounded=0;orthogonalLoop=1;jettySize=auto;html=1;exitX=0.5;exitY=1;exitDx=0;exitDy=0;entryX=0;entryY=0.5;entryDx=0;entryDy=0;" edge="1" parent="Mk_iKz1ua9PjmVDizpKL-88" source="Mk_iKz1ua9PjmVDizpKL-18" target="Mk_iKz1ua9PjmVDizpKL-25">
          <mxGeometry relative="1" as="geometry" />
        </mxCell>
        <mxCell id="Mk_iKz1ua9PjmVDizpKL-31" style="edgeStyle=orthogonalEdgeStyle;rounded=0;orthogonalLoop=1;jettySize=auto;html=1;exitX=0.5;exitY=1;exitDx=0;exitDy=0;entryX=0;entryY=0.5;entryDx=0;entryDy=0;" edge="1" parent="Mk_iKz1ua9PjmVDizpKL-88" source="Mk_iKz1ua9PjmVDizpKL-18" target="Mk_iKz1ua9PjmVDizpKL-26">
          <mxGeometry relative="1" as="geometry" />
        </mxCell>
        <mxCell id="Mk_iKz1ua9PjmVDizpKL-32" style="edgeStyle=orthogonalEdgeStyle;rounded=0;orthogonalLoop=1;jettySize=auto;html=1;exitX=0.5;exitY=1;exitDx=0;exitDy=0;entryX=0;entryY=0.5;entryDx=0;entryDy=0;" edge="1" parent="Mk_iKz1ua9PjmVDizpKL-88" source="Mk_iKz1ua9PjmVDizpKL-18" target="Mk_iKz1ua9PjmVDizpKL-27">
          <mxGeometry relative="1" as="geometry" />
        </mxCell>
        <mxCell id="Mk_iKz1ua9PjmVDizpKL-33" value="linear n_embd -&amp;gt; head_size (6)" style="edgeLabel;html=1;align=center;verticalAlign=middle;resizable=0;points=[];" vertex="1" connectable="0" parent="Mk_iKz1ua9PjmVDizpKL-32">
          <mxGeometry x="-0.6941" y="2" relative="1" as="geometry">
            <mxPoint as="offset" />
          </mxGeometry>
        </mxCell>
        <mxCell id="Mk_iKz1ua9PjmVDizpKL-39" style="edgeStyle=orthogonalEdgeStyle;rounded=0;orthogonalLoop=1;jettySize=auto;html=1;exitX=1;exitY=0.5;exitDx=0;exitDy=0;entryX=0;entryY=0.5;entryDx=0;entryDy=0;" edge="1" parent="Mk_iKz1ua9PjmVDizpKL-88" source="Mk_iKz1ua9PjmVDizpKL-18" target="Mk_iKz1ua9PjmVDizpKL-36">
          <mxGeometry relative="1" as="geometry">
            <Array as="points">
              <mxPoint x="164.99999999999991" y="15" />
            </Array>
          </mxGeometry>
        </mxCell>
        <mxCell id="Mk_iKz1ua9PjmVDizpKL-40" style="edgeStyle=orthogonalEdgeStyle;rounded=0;orthogonalLoop=1;jettySize=auto;html=1;exitX=1;exitY=0.5;exitDx=0;exitDy=0;entryX=0;entryY=0.5;entryDx=0;entryDy=0;" edge="1" parent="Mk_iKz1ua9PjmVDizpKL-88" source="Mk_iKz1ua9PjmVDizpKL-18" target="Mk_iKz1ua9PjmVDizpKL-37">
          <mxGeometry relative="1" as="geometry">
            <Array as="points">
              <mxPoint x="209.99999999999991" y="15" />
            </Array>
          </mxGeometry>
        </mxCell>
        <mxCell id="Mk_iKz1ua9PjmVDizpKL-46" style="edgeStyle=orthogonalEdgeStyle;rounded=0;orthogonalLoop=1;jettySize=auto;html=1;exitX=1;exitY=0.25;exitDx=0;exitDy=0;entryX=0;entryY=0.5;entryDx=0;entryDy=0;" edge="1" parent="Mk_iKz1ua9PjmVDizpKL-88" source="Mk_iKz1ua9PjmVDizpKL-18" target="Mk_iKz1ua9PjmVDizpKL-43">
          <mxGeometry relative="1" as="geometry">
            <Array as="points">
              <mxPoint x="299.9999999999999" />
              <mxPoint x="299.9999999999999" y="240" />
            </Array>
          </mxGeometry>
        </mxCell>
        <mxCell id="Mk_iKz1ua9PjmVDizpKL-34" style="edgeStyle=orthogonalEdgeStyle;rounded=0;orthogonalLoop=1;jettySize=auto;html=1;entryX=0;entryY=0.5;entryDx=0;entryDy=0;" edge="1" parent="Mk_iKz1ua9PjmVDizpKL-88" target="Mk_iKz1ua9PjmVDizpKL-38" source="Mk_iKz1ua9PjmVDizpKL-18">
          <mxGeometry relative="1" as="geometry">
            <mxPoint x="129.99999999999994" y="45" as="sourcePoint" />
            <Array as="points">
              <mxPoint x="259.9999999999999" y="15" />
            </Array>
          </mxGeometry>
        </mxCell>
        <mxCell id="Mk_iKz1ua9PjmVDizpKL-35" value="linear n_embd -&amp;gt; head_size (6)" style="edgeLabel;html=1;align=center;verticalAlign=middle;resizable=0;points=[];" vertex="1" connectable="0" parent="Mk_iKz1ua9PjmVDizpKL-34">
          <mxGeometry x="-0.6941" y="2" relative="1" as="geometry">
            <mxPoint x="107" y="32" as="offset" />
          </mxGeometry>
        </mxCell>
        <mxCell id="Mk_iKz1ua9PjmVDizpKL-87" value="" style="group" vertex="1" connectable="0" parent="Mk_iKz1ua9PjmVDizpKL-88">
          <mxGeometry y="125" width="449.99999999999983" height="365" as="geometry" />
        </mxCell>
        <mxCell id="Mk_iKz1ua9PjmVDizpKL-25" value="Query H" style="rounded=0;whiteSpace=wrap;html=1;" vertex="1" parent="Mk_iKz1ua9PjmVDizpKL-87">
          <mxGeometry width="119.99999999999997" height="30" as="geometry" />
        </mxCell>
        <mxCell id="Mk_iKz1ua9PjmVDizpKL-26" value="Query i" style="rounded=0;whiteSpace=wrap;html=1;" vertex="1" parent="Mk_iKz1ua9PjmVDizpKL-87">
          <mxGeometry y="50" width="119.99999999999997" height="30" as="geometry" />
        </mxCell>
        <mxCell id="Mk_iKz1ua9PjmVDizpKL-27" value="Query !" style="rounded=0;whiteSpace=wrap;html=1;" vertex="1" parent="Mk_iKz1ua9PjmVDizpKL-87">
          <mxGeometry y="100" width="119.99999999999997" height="30" as="geometry" />
        </mxCell>
        <mxCell id="Mk_iKz1ua9PjmVDizpKL-36" value="Key H" style="rounded=0;whiteSpace=wrap;html=1;direction=south;" vertex="1" parent="Mk_iKz1ua9PjmVDizpKL-87">
          <mxGeometry x="149.99999999999994" width="29.999999999999993" height="130" as="geometry" />
        </mxCell>
        <mxCell id="Mk_iKz1ua9PjmVDizpKL-37" value="Key i" style="rounded=0;whiteSpace=wrap;html=1;direction=south;" vertex="1" parent="Mk_iKz1ua9PjmVDizpKL-87">
          <mxGeometry x="194.99999999999991" width="29.999999999999993" height="130" as="geometry" />
        </mxCell>
        <mxCell id="Mk_iKz1ua9PjmVDizpKL-38" value="Key !" style="rounded=0;whiteSpace=wrap;html=1;direction=south;" vertex="1" parent="Mk_iKz1ua9PjmVDizpKL-87">
          <mxGeometry x="244.99999999999994" width="29.999999999999993" height="130" as="geometry" />
        </mxCell>
        <mxCell id="Mk_iKz1ua9PjmVDizpKL-41" value="Value H" style="rounded=0;whiteSpace=wrap;html=1;" vertex="1" parent="Mk_iKz1ua9PjmVDizpKL-87">
          <mxGeometry x="329.99999999999983" width="119.99999999999997" height="30" as="geometry" />
        </mxCell>
        <mxCell id="Mk_iKz1ua9PjmVDizpKL-42" value="Value i" style="rounded=0;whiteSpace=wrap;html=1;" vertex="1" parent="Mk_iKz1ua9PjmVDizpKL-87">
          <mxGeometry x="329.99999999999983" y="50" width="119.99999999999997" height="30" as="geometry" />
        </mxCell>
        <mxCell id="Mk_iKz1ua9PjmVDizpKL-43" value="Value !" style="rounded=0;whiteSpace=wrap;html=1;" vertex="1" parent="Mk_iKz1ua9PjmVDizpKL-87">
          <mxGeometry x="329.99999999999983" y="100" width="119.99999999999997" height="30" as="geometry" />
        </mxCell>
        <mxCell id="Mk_iKz1ua9PjmVDizpKL-47" value="q @ transpose(k)" style="text;html=1;align=center;verticalAlign=middle;whiteSpace=wrap;rounded=0;" vertex="1" parent="Mk_iKz1ua9PjmVDizpKL-87">
          <mxGeometry x="79.99999999999999" y="160" width="109.99999999999999" height="30" as="geometry" />
        </mxCell>
        <mxCell id="Mk_iKz1ua9PjmVDizpKL-48" value="masked fill tril" style="text;html=1;align=center;verticalAlign=middle;whiteSpace=wrap;rounded=0;" vertex="1" parent="Mk_iKz1ua9PjmVDizpKL-87">
          <mxGeometry x="84.99999999999997" y="190" width="89.99999999999997" height="30" as="geometry" />
        </mxCell>
        <mxCell id="Mk_iKz1ua9PjmVDizpKL-49" value="softmax" style="text;html=1;align=center;verticalAlign=middle;whiteSpace=wrap;rounded=0;" vertex="1" parent="Mk_iKz1ua9PjmVDizpKL-87">
          <mxGeometry x="99.99999999999997" y="220" width="59.999999999999986" height="30" as="geometry" />
        </mxCell>
        <mxCell id="Mk_iKz1ua9PjmVDizpKL-50" value="" style="shape=curlyBracket;whiteSpace=wrap;html=1;rounded=1;labelPosition=left;verticalLabelPosition=middle;align=right;verticalAlign=middle;rotation=-90;" vertex="1" parent="Mk_iKz1ua9PjmVDizpKL-87">
          <mxGeometry x="124.99999999999997" y="15" width="19.999999999999996" height="270" as="geometry" />
        </mxCell>
        <mxCell id="Mk_iKz1ua9PjmVDizpKL-51" value="w HH" style="rounded=0;whiteSpace=wrap;html=1;" vertex="1" parent="Mk_iKz1ua9PjmVDizpKL-87">
          <mxGeometry x="59.999999999999986" y="250" width="39.99999999999999" height="30" as="geometry" />
        </mxCell>
        <mxCell id="Mk_iKz1ua9PjmVDizpKL-52" value="w Hi" style="rounded=0;whiteSpace=wrap;html=1;" vertex="1" parent="Mk_iKz1ua9PjmVDizpKL-87">
          <mxGeometry x="59.999999999999986" y="290" width="39.99999999999999" height="30" as="geometry" />
        </mxCell>
        <mxCell id="Mk_iKz1ua9PjmVDizpKL-53" value="w H!" style="rounded=0;whiteSpace=wrap;html=1;" vertex="1" parent="Mk_iKz1ua9PjmVDizpKL-87">
          <mxGeometry x="59.999999999999986" y="330" width="39.99999999999999" height="30" as="geometry" />
        </mxCell>
        <mxCell id="Mk_iKz1ua9PjmVDizpKL-54" value="" style="rounded=0;whiteSpace=wrap;html=1;" vertex="1" parent="Mk_iKz1ua9PjmVDizpKL-87">
          <mxGeometry x="104.99999999999996" y="250" width="39.99999999999999" height="30" as="geometry" />
        </mxCell>
        <mxCell id="Mk_iKz1ua9PjmVDizpKL-55" value="w ii" style="rounded=0;whiteSpace=wrap;html=1;" vertex="1" parent="Mk_iKz1ua9PjmVDizpKL-87">
          <mxGeometry x="104.99999999999996" y="290" width="39.99999999999999" height="30" as="geometry" />
        </mxCell>
        <mxCell id="Mk_iKz1ua9PjmVDizpKL-56" value="w i!" style="rounded=0;whiteSpace=wrap;html=1;" vertex="1" parent="Mk_iKz1ua9PjmVDizpKL-87">
          <mxGeometry x="104.99999999999996" y="330" width="39.99999999999999" height="30" as="geometry" />
        </mxCell>
        <mxCell id="Mk_iKz1ua9PjmVDizpKL-57" value="" style="rounded=0;whiteSpace=wrap;html=1;" vertex="1" parent="Mk_iKz1ua9PjmVDizpKL-87">
          <mxGeometry x="149.99999999999994" y="250" width="39.99999999999999" height="30" as="geometry" />
        </mxCell>
        <mxCell id="Mk_iKz1ua9PjmVDizpKL-58" value="" style="rounded=0;whiteSpace=wrap;html=1;" vertex="1" parent="Mk_iKz1ua9PjmVDizpKL-87">
          <mxGeometry x="149.99999999999994" y="290" width="39.99999999999999" height="30" as="geometry" />
        </mxCell>
        <mxCell id="Mk_iKz1ua9PjmVDizpKL-59" value="w !!" style="rounded=0;whiteSpace=wrap;html=1;" vertex="1" parent="Mk_iKz1ua9PjmVDizpKL-87">
          <mxGeometry x="149.99999999999994" y="330" width="39.99999999999999" height="30" as="geometry" />
        </mxCell>
        <mxCell id="Mk_iKz1ua9PjmVDizpKL-60" value="" style="shape=flexArrow;endArrow=classic;html=1;rounded=0;width=2;endSize=3.44;endWidth=8;" edge="1" parent="Mk_iKz1ua9PjmVDizpKL-87">
          <mxGeometry width="50" height="50" relative="1" as="geometry">
            <mxPoint x="39.99999999999999" y="365" as="sourcePoint" />
            <mxPoint x="19.999999999999996" y="320" as="targetPoint" />
          </mxGeometry>
        </mxCell>
        <mxCell id="Mk_iKz1ua9PjmVDizpKL-61" value="head size 6" style="edgeLabel;html=1;align=center;verticalAlign=middle;resizable=0;points=[];" vertex="1" connectable="0" parent="Mk_iKz1ua9PjmVDizpKL-60">
          <mxGeometry x="-0.1" y="2" relative="1" as="geometry">
            <mxPoint x="-9" y="-3" as="offset" />
          </mxGeometry>
        </mxCell>
        <mxCell id="Mk_iKz1ua9PjmVDizpKL-63" value="@" style="ellipse;whiteSpace=wrap;html=1;aspect=fixed;" vertex="1" parent="Mk_iKz1ua9PjmVDizpKL-87">
          <mxGeometry x="244.99999999999994" y="290" width="29.601769911504427" height="29.601769911504427" as="geometry" />
        </mxCell>
        <mxCell id="Mk_iKz1ua9PjmVDizpKL-65" value="" style="endArrow=classic;html=1;rounded=0;" edge="1" parent="Mk_iKz1ua9PjmVDizpKL-87">
          <mxGeometry width="50" height="50" relative="1" as="geometry">
            <mxPoint x="379.99999999999994" y="150" as="sourcePoint" />
            <mxPoint x="259.9999999999999" y="280" as="targetPoint" />
            <Array as="points">
              <mxPoint x="379.99999999999994" y="200" />
              <mxPoint x="259.9999999999999" y="200" />
            </Array>
          </mxGeometry>
        </mxCell>
        <mxCell id="Mk_iKz1ua9PjmVDizpKL-83" value="(T x head_size)" style="edgeLabel;html=1;align=center;verticalAlign=middle;resizable=0;points=[];" vertex="1" connectable="0" parent="Mk_iKz1ua9PjmVDizpKL-65">
          <mxGeometry x="-0.232" y="2" relative="1" as="geometry">
            <mxPoint x="-4" y="-12" as="offset" />
          </mxGeometry>
        </mxCell>
        <mxCell id="Mk_iKz1ua9PjmVDizpKL-66" value="" style="endArrow=classic;html=1;rounded=0;" edge="1" parent="Mk_iKz1ua9PjmVDizpKL-87">
          <mxGeometry width="50" height="50" relative="1" as="geometry">
            <mxPoint x="199.99999999999994" y="305" as="sourcePoint" />
            <mxPoint x="239.99999999999994" y="305" as="targetPoint" />
          </mxGeometry>
        </mxCell>
        <mxCell id="Mk_iKz1ua9PjmVDizpKL-85" value="(T x T)" style="edgeLabel;html=1;align=center;verticalAlign=middle;resizable=0;points=[];" vertex="1" connectable="0" parent="Mk_iKz1ua9PjmVDizpKL-66">
          <mxGeometry x="-0.1" y="4" relative="1" as="geometry">
            <mxPoint y="-11" as="offset" />
          </mxGeometry>
        </mxCell>
        <mxCell id="Mk_iKz1ua9PjmVDizpKL-68" value="" style="endArrow=classic;html=1;rounded=0;" edge="1" parent="Mk_iKz1ua9PjmVDizpKL-87">
          <mxGeometry width="50" height="50" relative="1" as="geometry">
            <mxPoint x="283.99999999999983" y="304" as="sourcePoint" />
            <mxPoint x="323.9999999999999" y="304" as="targetPoint" />
          </mxGeometry>
        </mxCell>
        <mxCell id="Mk_iKz1ua9PjmVDizpKL-86" value="(T x head_size)" style="edgeLabel;html=1;align=center;verticalAlign=middle;resizable=0;points=[];" vertex="1" connectable="0" parent="Mk_iKz1ua9PjmVDizpKL-68">
          <mxGeometry x="-0.2" y="1" relative="1" as="geometry">
            <mxPoint x="10" y="17" as="offset" />
          </mxGeometry>
        </mxCell>
        <mxCell id="Mk_iKz1ua9PjmVDizpKL-80" value="head out H" style="rounded=0;whiteSpace=wrap;html=1;" vertex="1" parent="Mk_iKz1ua9PjmVDizpKL-87">
          <mxGeometry x="329.99999999999983" y="230" width="119.99999999999997" height="30" as="geometry" />
        </mxCell>
        <mxCell id="Mk_iKz1ua9PjmVDizpKL-81" value="head out i" style="rounded=0;whiteSpace=wrap;html=1;" vertex="1" parent="Mk_iKz1ua9PjmVDizpKL-87">
          <mxGeometry x="329.99999999999983" y="280" width="119.99999999999997" height="30" as="geometry" />
        </mxCell>
        <mxCell id="Mk_iKz1ua9PjmVDizpKL-82" value="head out !" style="rounded=0;whiteSpace=wrap;html=1;" vertex="1" parent="Mk_iKz1ua9PjmVDizpKL-87">
          <mxGeometry x="329.99999999999983" y="330" width="119.99999999999997" height="30" as="geometry" />
        </mxCell>
        <mxCell id="Mk_iKz1ua9PjmVDizpKL-95" style="edgeStyle=orthogonalEdgeStyle;rounded=0;orthogonalLoop=1;jettySize=auto;html=1;exitX=1;exitY=0.25;exitDx=0;exitDy=0;" edge="1" parent="Mk_iKz1ua9PjmVDizpKL-87" source="Mk_iKz1ua9PjmVDizpKL-18">
          <mxGeometry relative="1" as="geometry">
            <mxPoint x="10" y="-110" as="sourcePoint" />
            <mxPoint x="330" y="15" as="targetPoint" />
            <Array as="points">
              <mxPoint x="300" y="-125" />
              <mxPoint x="300" y="15" />
            </Array>
          </mxGeometry>
        </mxCell>
        <mxCell id="Mk_iKz1ua9PjmVDizpKL-99" style="edgeStyle=orthogonalEdgeStyle;rounded=0;orthogonalLoop=1;jettySize=auto;html=1;exitX=1;exitY=0.25;exitDx=0;exitDy=0;entryX=0;entryY=0.5;entryDx=0;entryDy=0;" edge="1" parent="Mk_iKz1ua9PjmVDizpKL-88" target="Mk_iKz1ua9PjmVDizpKL-42">
          <mxGeometry relative="1" as="geometry">
            <mxPoint as="sourcePoint" />
            <mxPoint x="330" y="140" as="targetPoint" />
            <Array as="points">
              <mxPoint x="300" />
              <mxPoint x="300" y="190" />
            </Array>
          </mxGeometry>
        </mxCell>
        <mxCell id="Mk_iKz1ua9PjmVDizpKL-100" value="linear n_embed -&amp;gt; head_size (6)" style="edgeLabel;html=1;align=center;verticalAlign=middle;resizable=0;points=[];" vertex="1" connectable="0" parent="Mk_iKz1ua9PjmVDizpKL-99">
          <mxGeometry x="0.4502" y="2" relative="1" as="geometry">
            <mxPoint as="offset" />
          </mxGeometry>
        </mxCell>
        <mxCell id="Mk_iKz1ua9PjmVDizpKL-7" style="edgeStyle=orthogonalEdgeStyle;rounded=0;orthogonalLoop=1;jettySize=auto;html=1;exitX=0.5;exitY=1;exitDx=0;exitDy=0;" edge="1" parent="1" source="Mk_iKz1ua9PjmVDizpKL-1" target="Mk_iKz1ua9PjmVDizpKL-4">
          <mxGeometry relative="1" as="geometry">
            <Array as="points">
              <mxPoint x="140" y="140" />
              <mxPoint x="240" y="140" />
            </Array>
          </mxGeometry>
        </mxCell>
        <mxCell id="Mk_iKz1ua9PjmVDizpKL-1" value="H" style="ellipse;whiteSpace=wrap;html=1;aspect=fixed;" vertex="1" parent="1">
          <mxGeometry x="120" y="80" width="40" height="40" as="geometry" />
        </mxCell>
        <mxCell id="Mk_iKz1ua9PjmVDizpKL-8" style="edgeStyle=orthogonalEdgeStyle;rounded=0;orthogonalLoop=1;jettySize=auto;html=1;exitX=1;exitY=1;exitDx=0;exitDy=0;" edge="1" parent="1" source="Mk_iKz1ua9PjmVDizpKL-2">
          <mxGeometry relative="1" as="geometry">
            <mxPoint x="250" y="150" as="targetPoint" />
            <Array as="points">
              <mxPoint x="204" y="130" />
              <mxPoint x="251" y="130" />
            </Array>
          </mxGeometry>
        </mxCell>
        <mxCell id="Mk_iKz1ua9PjmVDizpKL-2" value="i" style="ellipse;whiteSpace=wrap;html=1;aspect=fixed;" vertex="1" parent="1">
          <mxGeometry x="170" y="80" width="40" height="40" as="geometry" />
        </mxCell>
        <mxCell id="Mk_iKz1ua9PjmVDizpKL-9" style="edgeStyle=orthogonalEdgeStyle;rounded=0;orthogonalLoop=1;jettySize=auto;html=1;exitX=1;exitY=0.5;exitDx=0;exitDy=0;entryX=0.75;entryY=0;entryDx=0;entryDy=0;" edge="1" parent="1" source="Mk_iKz1ua9PjmVDizpKL-3" target="Mk_iKz1ua9PjmVDizpKL-4">
          <mxGeometry relative="1" as="geometry">
            <Array as="points">
              <mxPoint x="265" y="100" />
            </Array>
          </mxGeometry>
        </mxCell>
        <mxCell id="Mk_iKz1ua9PjmVDizpKL-3" value="!" style="ellipse;whiteSpace=wrap;html=1;aspect=fixed;" vertex="1" parent="1">
          <mxGeometry x="220" y="80" width="40" height="40" as="geometry" />
        </mxCell>
        <mxCell id="Mk_iKz1ua9PjmVDizpKL-23" style="edgeStyle=orthogonalEdgeStyle;rounded=0;orthogonalLoop=1;jettySize=auto;html=1;exitX=0.5;exitY=1;exitDx=0;exitDy=0;entryX=0;entryY=0.5;entryDx=0;entryDy=0;" edge="1" parent="1" source="Mk_iKz1ua9PjmVDizpKL-4" target="Mk_iKz1ua9PjmVDizpKL-19">
          <mxGeometry relative="1" as="geometry">
            <Array as="points">
              <mxPoint x="240" y="255" />
            </Array>
          </mxGeometry>
        </mxCell>
        <mxCell id="Mk_iKz1ua9PjmVDizpKL-4" value="Token Embedding Table" style="shape=internalStorage;whiteSpace=wrap;html=1;backgroundOutline=1;" vertex="1" parent="1">
          <mxGeometry x="190" y="150" width="100" height="80" as="geometry" />
        </mxCell>
        <mxCell id="Mk_iKz1ua9PjmVDizpKL-22" style="edgeStyle=orthogonalEdgeStyle;rounded=0;orthogonalLoop=1;jettySize=auto;html=1;exitX=0.5;exitY=1;exitDx=0;exitDy=0;entryX=1;entryY=0.5;entryDx=0;entryDy=0;" edge="1" parent="1" source="Mk_iKz1ua9PjmVDizpKL-5" target="Mk_iKz1ua9PjmVDizpKL-19">
          <mxGeometry relative="1" as="geometry" />
        </mxCell>
        <mxCell id="Mk_iKz1ua9PjmVDizpKL-5" value="Positional Embedding&amp;nbsp;&lt;div&gt;Table&lt;/div&gt;" style="shape=internalStorage;whiteSpace=wrap;html=1;backgroundOutline=1;" vertex="1" parent="1">
          <mxGeometry x="310" y="150" width="100" height="80" as="geometry" />
        </mxCell>
        <mxCell id="Mk_iKz1ua9PjmVDizpKL-10" value="0,1,2" style="text;html=1;align=center;verticalAlign=middle;whiteSpace=wrap;rounded=0;" vertex="1" parent="1">
          <mxGeometry x="330" y="100" width="60" height="30" as="geometry" />
        </mxCell>
        <mxCell id="Mk_iKz1ua9PjmVDizpKL-14" value="" style="endArrow=classic;html=1;rounded=0;exitX=0.5;exitY=1;exitDx=0;exitDy=0;" edge="1" parent="1" source="Mk_iKz1ua9PjmVDizpKL-10" target="Mk_iKz1ua9PjmVDizpKL-5">
          <mxGeometry width="50" height="50" relative="1" as="geometry">
            <mxPoint x="550" y="590" as="sourcePoint" />
            <mxPoint x="600" y="540" as="targetPoint" />
          </mxGeometry>
        </mxCell>
        <mxCell id="Mk_iKz1ua9PjmVDizpKL-18" value="3 x n_embd (384)" style="rounded=0;whiteSpace=wrap;html=1;" vertex="1" parent="1">
          <mxGeometry x="120" y="290" width="120" height="60" as="geometry" />
        </mxCell>
        <mxCell id="Mk_iKz1ua9PjmVDizpKL-24" style="edgeStyle=orthogonalEdgeStyle;rounded=0;orthogonalLoop=1;jettySize=auto;html=1;entryX=0.5;entryY=0;entryDx=0;entryDy=0;" edge="1" parent="1" source="Mk_iKz1ua9PjmVDizpKL-19" target="Mk_iKz1ua9PjmVDizpKL-18">
          <mxGeometry relative="1" as="geometry">
            <Array as="points">
              <mxPoint x="295" y="280" />
              <mxPoint x="180" y="280" />
            </Array>
          </mxGeometry>
        </mxCell>
        <mxCell id="Mk_iKz1ua9PjmVDizpKL-19" value="+" style="ellipse;whiteSpace=wrap;html=1;aspect=fixed;" vertex="1" parent="1">
          <mxGeometry x="280" y="240" width="30" height="30" as="geometry" />
        </mxCell>
        <mxCell id="Mk_iKz1ua9PjmVDizpKL-104" value="concat along token dimension&amp;nbsp;" style="shape=curlyBracket;whiteSpace=wrap;html=1;rounded=1;labelPosition=left;verticalLabelPosition=middle;align=right;verticalAlign=middle;direction=north;" vertex="1" parent="1">
          <mxGeometry x="250" y="830" width="480" height="20" as="geometry" />
        </mxCell>
        <mxCell id="Mk_iKz1ua9PjmVDizpKL-108" style="edgeStyle=orthogonalEdgeStyle;rounded=0;orthogonalLoop=1;jettySize=auto;html=1;exitX=0.5;exitY=1;exitDx=0;exitDy=0;entryX=0.5;entryY=0;entryDx=0;entryDy=0;" edge="1" parent="1" source="Mk_iKz1ua9PjmVDizpKL-105" target="Mk_iKz1ua9PjmVDizpKL-107">
          <mxGeometry relative="1" as="geometry" />
        </mxCell>
        <mxCell id="Mk_iKz1ua9PjmVDizpKL-105" value="Multi Headed Attention (n_head*T x head_size)" style="rounded=0;whiteSpace=wrap;html=1;" vertex="1" parent="1">
          <mxGeometry x="352.5" y="860" width="275" height="60" as="geometry" />
        </mxCell>
        <mxCell id="Mk_iKz1ua9PjmVDizpKL-110" style="edgeStyle=orthogonalEdgeStyle;rounded=0;orthogonalLoop=1;jettySize=auto;html=1;exitX=0.5;exitY=1;exitDx=0;exitDy=0;" edge="1" parent="1" source="Mk_iKz1ua9PjmVDizpKL-107" target="Mk_iKz1ua9PjmVDizpKL-109">
          <mxGeometry relative="1" as="geometry" />
        </mxCell>
        <mxCell id="Mk_iKz1ua9PjmVDizpKL-107" value="Linear (n_head*T x head_size -&amp;gt; n_embd)" style="rounded=0;whiteSpace=wrap;html=1;" vertex="1" parent="1">
          <mxGeometry x="352.5" y="930" width="275" height="60" as="geometry" />
        </mxCell>
        <mxCell id="Mk_iKz1ua9PjmVDizpKL-109" value="output n_embd" style="ellipse;whiteSpace=wrap;html=1;aspect=fixed;" vertex="1" parent="1">
          <mxGeometry x="465" y="1010" width="50" height="50" as="geometry" />
        </mxCell>
      </root>
    </mxGraphModel>
  </diagram>
</mxfile>
